<?xml version="1.0" encoding="utf-8"?>
<!-- Generator: Adobe Illustrator 20.1.0, SVG Export Plug-In . SVG Version: 6.00 Build 0)  -->
<svg version="1.1" id="Layer_1" xmlns="http://www.w3.org/2000/svg" xmlns:xlink="http://www.w3.org/1999/xlink" x="0px" y="0px"
	 viewBox="0 0 960 960" style="enable-background:new 0 0 960 960;" xml:space="preserve">
<style type="text/css">
	.st0{fill:#F44336;}
	.st1{fill:#CE3632;}
	.st2{fill:#821515;}
	.st3{fill:#B74137;}
	.st4{fill:#9D1917;}
	.st5{fill:#407F3F;}
	.st6{fill:#4CAF50;}
	.st7{fill:#386334;}
	.st8{fill:#2B5836;}
	.st9{fill:#367736;}
	.st10{fill:#891721;}
	.st11{fill:#B72D43;}
	.st12{fill:#4CA54F;}
	.st13{fill:#637950;}
	.st14{fill:#2F3920;}
	.st15{fill:#CC3347;}
</style>
<g>
	<polygon class="st0" points="306.1,261 478.6,433.6 478.6,261 306.1,88.5 	"/>
	<polygon class="st1" points="651.1,261 478.6,433.6 478.6,261 651.1,88.5 	"/>
	<g>
		<polygon class="st2" points="584,261 478.6,366.4 478.6,261 584,155.7 		"/>
	</g>
	<g>
		<polygon class="st3" points="373.2,261 478.6,366.4 478.6,261 373.2,155.7 		"/>
	</g>
	<g>
		<polygon class="st4" points="373.1,156 478.4,50.6 478.4,156 373.1,261.3 		"/>
	</g>
	<g>
		<polygon class="st0" points="583.8,156 478.4,50.6 478.4,156 583.8,261.3 		"/>
	</g>
	<polygon class="st5" points="698.1,306.9 525.6,479.4 698.1,479.4 870.7,306.9 	"/>
	<polygon class="st6" points="698.1,652 525.6,479.4 698.1,479.4 870.7,652 	"/>
	<g>
		<polygon class="st7" points="698.1,584.8 592.8,479.4 698.1,479.4 803.5,584.8 		"/>
	</g>
	<g>
		<polygon class="st8" points="698.1,374.1 592.8,479.4 698.1,479.4 803.5,374.1 		"/>
	</g>
	<g>
		<polygon class="st6" points="803.2,373.9 908.6,479.3 803.2,479.3 697.8,373.9 		"/>
	</g>
	<g>
		<polygon class="st9" points="803.2,584.6 908.6,479.3 803.2,479.3 697.8,584.6 		"/>
	</g>
	<g>
		<g>
			<polygon class="st10" points="584,699 478.6,593.6 478.6,699 584,804.3 			"/>
		</g>
		<g>
			<polygon class="st11" points="373.2,699 478.6,593.6 478.6,699 373.2,804.3 			"/>
		</g>
	</g>
	<g>
		<polygon class="st0" points="373.1,804 478.4,909.4 478.4,804 373.1,698.7 		"/>
	</g>
	<g>
		<polygon class="st2" points="583.8,804 478.4,909.4 478.4,804 583.8,698.7 		"/>
	</g>
	<polygon class="st1" points="306.1,699 478.6,526.4 478.6,699 306.1,871.5 	"/>
	<polygon class="st0" points="651.1,699 478.6,526.4 478.6,699 651.1,871.5 	"/>
	<polygon class="st8" points="156.8,584.8 51.4,479.4 156.8,479.4 262.2,584.8 	"/>
	<g>
		<polygon class="st12" points="156.8,374.1 51.4,479.4 156.8,479.4 262.2,374.1 		"/>
	</g>
	<polygon class="st5" points="260.5,652 433.1,479.4 260.5,479.4 88,652 	"/>
	<polygon class="st6" points="260.5,306.9 433.1,479.4 260.5,479.4 88,306.9 	"/>
	<g>
		<g>
			<path class="st13" d="M707.2,170l6.9,0.9l-1.4,80.8l80.8-1.4l0.9,6.9l-89.4,2.3L707.2,170z"/>
		</g>
		<g>
			<path class="st14" d="M731.6,145.6l6.9,0.9l-1.4,80.8l80.8-1.4l0.9,6.9l-89.4,2.3L731.6,145.6z"/>
		</g>
	</g>
	<g>
		<g>
			<path class="st15" d="M172.7,259.1l0.9-6.9l80.8,1.4l-1.4-80.8l6.9-0.9l2.3,89.4L172.7,259.1z"/>
		</g>
		<g>
			<path class="st4" d="M148.3,234.6l0.9-6.9l80.8,1.4l-1.4-80.8l6.9-0.9l2.3,89.4L148.3,234.6z"/>
		</g>
	</g>
	<g>
		<g>
			<path class="st13" d="M259.9,798.1l-6.9-0.9l1.4-80.8l-80.8,1.4l-0.9-6.9l89.4-2.3L259.9,798.1z"/>
		</g>
		<g>
			<path class="st14" d="M235.4,822.5l-6.9-0.9l1.4-80.8l-80.8,1.4l-0.9-6.9l89.4-2.3L235.4,822.5z"/>
		</g>
	</g>
	<g>
		<g>
			<path class="st15" d="M794.3,709l-0.9,6.9l-80.8-1.4l1.4,80.8l-6.9,0.9l-2.3-89.4L794.3,709z"/>
		</g>
		<g>
			<path class="st4" d="M818.8,733.5l-0.9,6.9l-80.8-1.4l1.4,80.8l-6.9,0.9l-2.3-89.4L818.8,733.5z"/>
		</g>
	</g>
</g>
</svg>
