<?xml version="1.0" encoding="utf-8"?>
<!-- Generator: Adobe Illustrator 20.1.0, SVG Export Plug-In . SVG Version: 6.00 Build 0)  -->
<svg version="1.1" id="Layer_1" xmlns="http://www.w3.org/2000/svg" xmlns:xlink="http://www.w3.org/1999/xlink" x="0px" y="0px"
	 viewBox="0 0 960 960" style="enable-background:new 0 0 960 960;" xml:space="preserve">
<style type="text/css">
	.st0{fill:#E54437;}
</style>
<g>
	<path class="st0" d="M308.1,331.5c0,10.5-0.8,67.2-46.2,67.2c-21,0-46.2-15-46.2-67.2c0-51.9,24.7-67.4,46.2-67.4
		C282.6,264.1,308.1,279,308.1,331.5z M233.2,331.5c0,19,3.5,51.4,28.7,51.4c25.2,0,28.7-32.5,28.7-51.4c0-19.2-3.5-51.7-28.7-51.7
		C236.7,279.8,233.2,312.3,233.2,331.5z"/>
	<path class="st0" d="M368.3,266.3H389l50.4,109.6l0.5-0.5l-1.5-33.7v-75.4h16.7v130.1h-20.7L384,286.8l-0.5,0.5l1.5,34v75.2h-16.7
		V266.3z"/>
	<path class="st0" d="M608.2,371.4c-10.5,16.5-23,27.2-43.2,27.2c-38,0-49.9-35-49.9-67.2c0-51.9,27.5-67.4,48.4-67.4
		c20.2,0,32,10.5,41.2,27.7l-15.2,7.7c-5.5-10.5-13-19.7-25.7-19.7c-26,0-31.2,31.5-31.2,51.4c0,20.2,4.7,51.7,31.2,51.7
		c15.2,0,23-9.2,30.7-21L608.2,371.4z"/>
	<path class="st0" d="M675.6,266.3h81.1v15h-64.4v39h53.2v15h-53.2v46.2h64.4v15h-81.1V266.3z"/>
</g>
<g>
	<g>
		<g>
			<path class="st0" d="M232.6,334.5v215.6c0,19,5.5,28,22.7,28c21,0,25.5-9.2,25.5-28v-88.6h16.7v96.6c0,17.2-12.2,35.7-40.9,35.7
				c-28.2,0-40.7-17.7-40.7-36.7V334.5H232.6z"/>
			<path class="st0" d="M394.5,591.6h-16.7V461.5h40.4c30.2,0,42,16.5,42,35.5c0,27.5-19.5,38.7-37.7,38.7h-28V591.6z M417.5,520.7
				c16.5,0,25.2-7.5,25.2-22.5c0-17.7-11.5-21.7-25.2-21.7h-23v44.2H417.5z"/>
			<path class="st0" d="M608.3,526.7c0,10.5-0.8,67.2-46.2,67.2c-21,0-46.2-15-46.2-67.2c0-51.9,24.7-67.4,46.2-67.4
				C582.8,459.3,608.3,474.3,608.3,526.7z M533.4,526.7c0,19,3.5,51.4,28.7,51.4c25.2,0,28.7-32.5,28.7-51.4
				c0-19.2-3.5-51.7-28.7-51.7C536.9,475,533.4,507.5,533.4,526.7z"/>
			<path class="st0" d="M668.4,461.5h20.7l50.4,109.6l0.5-0.5l-1.5-33.7v-75.4h16.7v130.1h-20.7L684.2,482l-0.5,0.5l1.5,34v75.2
				h-16.7V461.5z"/>
		</g>
	</g>
</g>
<g>
	<path class="st0" d="M262.7,710.2l-5.8,18.3l-7.8-2.8l19.4-60.2h10.2l19.4,60.2l-7.8,2.8l-5.7-18.3H262.7z M273.5,674.6l-8.7,28.5
		h17.5L273.5,674.6z"/>
	<path class="st0" d="M365.3,641.9l3,3.8l-40.1,38.7l40.1,38.7l-3,3.8l-44.7-42.5L365.3,641.9z"/>
	<path class="st0" d="M437.3,715.1c-5,7.8-10.9,12.9-20.4,12.9c-17.9,0-23.6-16.5-23.6-31.8c0-24.6,13-31.9,22.9-31.9
		c9.6,0,15.1,5,19.5,13.1l-7.2,3.7c-2.6-5-6.1-9.3-12.2-9.3c-12.3,0-14.8,14.9-14.8,24.3c0,9.6,2.2,24.4,14.8,24.4
		c7.2,0,10.9-4.4,14.5-9.9L437.3,715.1z"/>
	<path class="st0" d="M507.9,696.3c0,5-0.4,31.8-21.8,31.8c-9.9,0-21.8-7.1-21.8-31.8c0-24.6,11.7-31.9,21.8-31.9
		C495.9,664.4,507.9,671.5,507.9,696.3z M472.5,696.3c0,9,1.7,24.3,13.6,24.3c11.9,0,13.6-15.3,13.6-24.3c0-9.1-1.7-24.4-13.6-24.4
		C474.1,671.8,472.5,687.2,472.5,696.3z"/>
	<path class="st0" d="M535.5,665.4h20.5c17.5,0,25.4,7.2,25.4,30c0,19.2-3.3,31.5-25.4,31.5h-20.5v-7.1h6.4v-47.3h-6.4V665.4z
		 M549.8,719.9h8.4c10.4,0,15-5.9,15-23.6c0-18.9-5.4-23.7-15.2-23.7h-8.1V719.9z"/>
	<path class="st0" d="M610.9,665.4h38.4v7.1h-30.5v18.4h25.1v7.1h-25.1v21.8h30.5v7.1h-38.4V665.4z"/>
	<path class="st0" d="M722.4,684.4l-44.7,42.5l-3-3.8l40.1-38.7l-40.1-38.7l3-3.8L722.4,684.4z"/>
</g>
</svg>
